<svg xmlns="http://www.w3.org/2000/svg" xmlns:xlink="http://www.w3.org/1999/xlink" width="642" height="654" viewBox="0 0 642 654"><defs><path id="a" d="M265.78 294.2c30.78-28.08 211.95-191.43 421.82-342.93l5.36 146.92c-204.12 105.45-392.2 182-427.18 196zm-.77.48l.2-.25.57-.23-.45.41-.32.07zm-.16-.59l2.28-2.08-1.92 2.42-.53.2.17-.54zm2.28-2.08zm-2.47 1.98l.38-.48-.19.58-.24.23.05-.33zm-.47-.1l.92-2.95-.45 3.05-.35.45-.12-.56zm.92-2.95zm-1.14 2.95l.08-.6.14.6-.1.3-.12-.3zm-.47.15l-.67-3.02 1.14 2.87-.08.56-.39-.41zm-.67-3.02zm.49 3.13l-.23-.57c.12.14.3.32.41.46l.07.31-.25-.2zm-.33.36l-2.1-2.28 2.43 1.92.2.53-.53-.17zm-2.1-2.28zm2 2.47l-.49-.38.59.19.22.24-.32-.05zm-.12.47l-2.94-.92 3.05.45.45.35-.56.12zm-2.94-.92zm2.96 1.14l-.62-.09.6-.13.32.1-.3.12zm.14.47l-3.02.67 2.87-1.14.57.08-.42.39zm-3.02.67zm3.13-.49l-.57.23c.14-.12.32-.3.46-.41l.31-.07-.2.25zm.36.33a645.7 645.7 0 0 0-2.27 2.1l1.91-2.43.53-.2-.17.53zm-2.27 2.1zm2.46-2l-.38.5.19-.6.24-.22-.05.33zm.48.11l-.93 2.95.45-3.06.35-.44.13.56zm-.93 2.95zm1.15-2.95l-.1.6-.12-.6.1-.3.12.3zm.46-.15l.67 3.02-1.14-2.87.09-.56.38.41zm.67 3.02zm-.49-3.13l.23.57c-.12-.14-.3-.32-.41-.46l-.07-.32.26.2zm.33-.36c1.3 1.4 2.04 2.22 2.1 2.27l-2.43-1.91-.2-.53.54.17zm2.1 2.27zm-2-2.46c.15.1.35.26.5.38l-.6-.19a38.1 38.1 0 0 0-.22-.24l.33.05zm.12-.47l2.94.92c-.06-.01-1.15-.18-3.05-.45l-.45-.35.56-.12zm2.94.92zm-2.95-1.14l.6.08-.6.13-.3-.1.3-.11zm-.14-.47l3-.67-2.86 1.14-.56-.09.42-.38zm3-.67h.01zm-3.75 1l.06-.18.37-.08-.23.3-.2-.03zm-.02-.25l.12-.05-.04.12-.1.02.02-.1zm-.22-.12l.27-.26-.05.37-.18.08-.04-.2zm-.11-.03l.08-.1c0 .05.02.08.03.13l-.08.06-.03-.09zm-.25.01l.1-.35.15.34-.12.15-.13-.14zm-.11.03c0-.04 0-.08.02-.13l.09.1-.03.1-.08-.06zm-.22.14l-.08-.37.3.23-.03.2-.19-.06zm-.07.08l-.05-.12.12.04.03.1-.1-.02zm-.12.22l-.25-.27.37.05.07.18-.2.04zm-.03.11l-.1-.08c.05 0 .08-.02.13-.03l.07.08-.1.03zm.01.25l-.35-.1.34-.15.16.12-.15.14zm.04.11c-.05 0-.09 0-.13-.02l.1-.09.09.03a5.3 5.3 0 0 1-.06.08zm.13.22l-.36.08.23-.3.19.03-.06.19zm.08.07a4.5 4.5 0 0 1-.12.05l.04-.12.1-.02-.02.1zm.23.12l-.28.25.05-.37.18-.07.05.2zm.1.03l-.08.1-.02-.13.07-.07.04.1zm.26-.01l-.11.35-.14-.34.12-.16.13.15zm.1-.04l-.01.14-.1-.1.04-.1.07.06zm.22-.13l.08.36-.3-.23.03-.19.19.06zm.07-.08l.05.12-.12-.04-.02-.1.1.02zm.12-.23l.25.28a46.1 46.1 0 0 0-.37-.05l-.07-.18.2-.04zm.03-.1l.1.08a7.6 7.6 0 0 1-.13.02l-.06-.07.09-.03zm-.01-.26l.36.12-.35.14-.15-.12.14-.14zm-.03-.1l.13.01-.1.1-.1-.04.07-.07zm-.26.01v-.05h.06l-.01.07-.06-.02zm-.13-.17l.16-.04-.03.16-.1-.02-.03-.1zm-.07-.04l.06-.02.01.06h-.05l-.02-.04zm-.17-.04l.11-.1.06.14-.1.04-.07-.08zm-.08 0l.04-.05.04.05-.04.04-.04-.04zm-.17.06l.05-.15.12.1a6.3 6.3 0 0 1-.07.08 4.06 4.06 0 0 0-.1-.03zm-.07.04v-.06c.03 0 .05 0 .07.02l-.02.05-.05-.01zm-.12.13l-.03-.15.15.02-.01.1-.11.03zm-.04.07l-.02-.06.06-.01.01.05-.05.02zm-.04.17l-.1-.11.14-.06.04.1-.08.07zm0 .08l-.04-.04.04-.04.04.04-.04.04zm.06.17l-.15-.04.1-.13.08.07-.03.1zm.04.07h-.06l.02-.07.05.02-.01.05zm.13.12l-.15.04.02-.16.1.02c.02.03.02.06.03.1zm.07.04a1 1 0 0 1-.06.02l-.01-.06.05-.01.02.05zm.17.04l-.11.1-.06-.14.1-.04.07.08zm.08 0l-.03.04-.05-.04.04-.04.04.03zm.18-.06l-.05.15a5.24 5.24 0 0 1-.13-.1l.07-.08.1.03zm.06-.04v.06l-.07-.02.02-.05.05.01zm.12-.13l.04.15-.16-.02.02-.1.1-.03zm.04-.07l.02.06-.06.01v-.05l.04-.02zm.04-.17l.1.11-.14.06a4.16 4.16 0 0 1-.04-.1l.08-.07zm0-.08l.05.03-.05.05-.04-.04.04-.04zm-.05-.17l.14.04-.1.13a4.84 4.84 0 0 0-.08-.07l.04-.1zm-.13.03l-.02-.08.1.03-.02.1a3.25 3.25 0 0 0-.06-.05zm-.06-.12h.03l.01.04h-.03l-.01-.04zm-.13-.07l.1-.02.03.09-.08-.01a1.4 1.4 0 0 1-.05-.06zm-.07-.02l.04-.01.03.03h-.04a.3.3 0 0 0-.03-.02zm-.14.01l.07-.07.07.06-.07.03-.07-.02zm-.06.02l.02-.03.04.01-.03.02h-.03zm-.13.08l.03-.1.1.02-.05.06-.08.02zm-.04.04v-.04h.04v.03l-.04.01zm-.07.13l-.02-.09.09-.04-.01.08-.06.05zm-.01.07l-.02-.04.03-.03v.04l-.01.03zm0 .14a2.12 2.12 0 0 1-.06-.07l.06-.07.03.07-.03.07zm.02.06l-.03-.02.01-.04.03.03v.03zm.08.13l-.1-.03.02-.1.06.05.02.08zm.05.04h-.04l-.01-.04h.03l.02.04zm.12.07l-.09.02-.03-.09.07.01.05.06zm.07.01l-.04.02-.03-.03h.04a.3.3 0 0 1 .03.01zm.14 0l-.07.06a4.9 4.9 0 0 0-.07-.06l.07-.02.07.02zm.07-.02a.9.9 0 0 0-.03.03l-.04-.01.03-.03h.04zm.12-.08l-.03.1-.1-.02.05-.06.08-.02zm.04-.05v.04l-.04.01.01-.03.03-.02zm.07-.12l.02.09-.09.03.01-.07.06-.05zm.02-.07l.01.04-.03.03v-.04s0-.02.02-.03zm0-.14l.06.07-.06.07-.03-.07.02-.07zm-.03-.06a.9.9 0 0 1 .03.02v.04l-.03-.03v-.04zm-.07-.04l-.01-.03.02.02v.03l-.01-.02zm-.1-.12l.06.02.03.07-.06-.04a2 2 0 0 1-.04-.05zm-.06-.03h.03l.02.03h-.03c0-.02-.01-.02-.02-.03zm-.13-.03l.07-.01.06.04h-.07l-.06-.03zm-.06 0h0zm-.12.04l.05-.05.07.02-.06.02-.06.01zm-.05.03l.02-.02h.03l-.02.01-.03.01zm-.09.1l.02-.07c.03 0 .05-.02.07-.03l-.04.06-.05.04zm-.03.05v-.03c.02 0 .02-.01.03-.02v.03l-.03.02zm-.03.13l-.01-.07.04-.06a1.42 1.42 0 0 1-.03.13zm0 .06v-.03-.03l.01.03v.03zm.05.12l-.05-.05v-.07l.03.06.02.06zm.03.05l-.03-.02a.3.3 0 0 1 0-.03s0 .02.02.02v.03zm.1.09l-.08-.02-.02-.07.05.04.04.05zm.04.03h-.03c0-.02-.01-.02-.02-.03h.03c0 .02.02.02.02.03zm.13.03l-.07.01a1.25 1.25 0 0 0-.06-.04h.06l.07.03zm.06 0h-.06l.03-.01h.03zm.12-.04l-.05.04h-.07l.06-.03.06-.01zm.05-.04l-.02.03h-.03c.01 0 .02 0 .03-.02h.02zm.1-.1l-.03.08-.07.02.04-.05.05-.04zm.02-.04v.03l-.03.02.01-.03.02-.02zm.03-.13l.01.07-.04.06v-.06l.03-.07zm0-.06v0zm-.04-.12l.05.05-.01.07-.03-.06-.01-.06zm.03.15l-.01.1-.03.08-.06.07-.06.06-.1.04-.08.02-.1-.01-.08-.03a5.04 5.04 0 0 0-.07-.06l-.06-.07-.04-.09-.02-.08.01-.1.03-.08.06-.08.07-.06c.03 0 .05-.02.08-.03l.1-.02.08.01.1.03.06.06.07.07.03.08.02.1zM701.7 337.4c-215.82-11.69-400.1-37.12-435.62-42.23 35.05-7.69 216.99-46.51 431.38-73.92zm9.86 269.97C491.2 471.58 298.6 321.9 265.86 296.15c35.9 11.4 229.07 74.02 440.33 164.3zM460.88 723.6C355.58 519.66 279.15 331.83 265.16 296.9c28.05 30.76 191.15 211.68 342.53 421.35zm-238.92 8.73c11.71-215.62 37.13-399.65 42.24-435.14 7.68 35.03 46.43 216.72 73.82 430.9zm-269.69 9.84C88 522.02 237.47 329.67 263.21 296.97c-11.4 35.86-73.94 228.76-164.12 439.84zm-116.59-250.15C39.65 386.7 227.52 310.26 262.47 296.27c-30.76 28.05-211.73 191.17-421.43 342.57zm-8.72-238.95c215.65 11.7 399.72 37.13 435.21 42.23-35.03 7.68-216.76 46.45-430.97 73.84zm-9.85-269.7C37.3 119.08 229.69 268.59 262.4 294.32c-35.88-11.4-228.82-73.93-439.94-164.1zM67.08-133.68c105.46 204.16 182.01 392.3 196 427.26C235.03 262.81 71.63 81.6-79.9-128.32zm239.18-8.73c-11.67 215.85-37.1 400.17-42.2 435.7-7.7-35.06-46.54-217.03-73.96-431.46zm269.97-9.86C440.46 68.12 290.8 260.75 265.04 293.5c11.41-35.91 74.03-229.12 164.3-440.42z"/></defs><desc>Generated with Avocode.</desc><g opacity=".15"><use fill="#efefef" xlink:href="#a"/></g></svg>
